<svg width="35" height="35" viewBox="0 0 35 35" fill="none" xmlns="http://www.w3.org/2000/svg">
<g id="Group">
<path id="Vector" d="M17.4396 32.8149C19.4675 32.8174 21.4759 32.4192 23.3495 31.6431C25.223 30.867 26.9248 29.7284 28.3569 28.2927C29.7927 26.8605 30.9313 25.1588 31.7074 23.2852C32.4834 21.4117 32.8817 19.4033 32.8792 17.3753C32.8817 15.3474 32.4834 13.339 31.7074 11.4654C30.9313 9.5919 29.7927 7.89016 28.3569 6.45801C26.9248 5.02225 25.223 3.88363 23.3495 3.10756C21.4759 2.33148 19.4675 1.93326 17.4396 1.93576C15.4117 1.93326 13.4032 2.33148 11.5297 3.10756C9.65615 3.88363 7.95442 5.02225 6.52226 6.45801C5.08651 7.89016 3.94788 9.5919 3.17181 11.4654C2.39574 13.339 1.99751 15.3474 2.00001 17.3753C1.99751 19.4033 2.39574 21.4117 3.17181 23.2852C3.94788 25.1588 5.08651 26.8605 6.52226 28.2927C7.95442 29.7284 9.65615 30.867 11.5297 31.6431C13.4032 32.4192 15.4117 32.8174 17.4396 32.8149Z" stroke="#A5B68D" stroke-width="2.90077" stroke-linejoin="round"/>
<circle id="Ellipse 6" cx="17.4396" cy="17.3753" r="14.5039" fill="white"/>
<path id="Vector_2" d="M11.2638 17.3753L15.8956 22.0072L25.1594 12.7435" stroke="#A5B68D" stroke-width="2.90077" stroke-linecap="round" stroke-linejoin="round"/>
</g>
</svg>
