<svg width="34" height="33" viewBox="0 0 34 33" fill="none" xmlns="http://www.w3.org/2000/svg">
<g id="Group 543">
<circle id="Ellipse 6" cx="17.1928" cy="16.3753" r="14.5039" fill="white"/>
<path id="Vector" d="M17.1928 29.4756C13.7184 29.4756 10.3863 28.0954 7.92951 25.6386C5.47274 23.1818 4.09254 19.8497 4.09254 16.3753C4.09254 12.9009 5.47274 9.56883 7.92951 7.11206C10.3863 4.65528 13.7184 3.27508 17.1928 3.27508C20.6672 3.27508 23.9993 4.65528 26.4561 7.11206C28.9128 9.56883 30.2931 12.9009 30.2931 16.3753C30.2931 19.8497 28.9128 23.1818 26.4561 25.6386C23.9993 28.0954 20.6672 29.4756 17.1928 29.4756ZM17.1928 1.52588e-05C15.0424 1.52588e-05 12.913 0.423576 10.9262 1.24651C8.93948 2.06945 7.13428 3.27565 5.61369 4.79624C2.54273 7.8672 0.817474 12.0323 0.817474 16.3753C0.817474 20.7183 2.54273 24.8835 5.61369 27.9544C7.13428 29.475 8.93948 30.6812 10.9262 31.5042C12.913 32.3271 15.0424 32.7507 17.1928 32.7507C21.5358 32.7507 25.7009 31.0254 28.7719 27.9544C31.8429 24.8835 33.5681 20.7183 33.5681 16.3753C33.5681 14.2249 33.1446 12.0955 32.3216 10.1088C31.4987 8.12203 30.2925 6.31682 28.7719 4.79624C27.2513 3.27565 25.4461 2.06945 23.4594 1.24651C21.4726 0.423576 19.3432 1.52588e-05 17.1928 1.52588e-05Z" fill="#A5B68D"/>
</g>
</svg>
