<svg width="34" height="34" viewBox="0 0 34 34" fill="none" xmlns="http://www.w3.org/2000/svg">
<path d="M33 30.9683V13.6984C33 13.383 32.9277 13.0719 32.7889 12.7898C32.65 12.5077 32.4484 12.2623 32.2 12.073L18.2 1.40635C17.8538 1.14258 17.4327 1 17 1C16.5673 1 16.1462 1.14258 15.8 1.40635L1.8 12.073C1.55161 12.2623 1.35 12.5077 1.21115 12.7898C1.07229 13.0719 1 13.383 1 13.6984V30.9683C1 31.5071 1.21071 32.0239 1.58579 32.4049C1.96086 32.7859 2.46957 33 3 33H11C11.5304 33 12.0391 32.7859 12.4142 32.4049C12.7893 32.0239 13 31.5071 13 30.9683V24.873C13 24.3342 13.2107 23.8174 13.5858 23.4364C13.9609 23.0553 14.4696 22.8413 15 22.8413H19C19.5304 22.8413 20.0391 23.0553 20.4142 23.4364C20.7893 23.8174 21 24.3342 21 24.873V30.9683C21 31.5071 21.2107 32.0239 21.5858 32.4049C21.9609 32.7859 22.4696 33 23 33H31C31.5304 33 32.0391 32.7859 32.4142 32.4049C32.7893 32.0239 33 31.5071 33 30.9683Z" stroke="black" stroke-width="2" stroke-linecap="round" stroke-linejoin="round"/>
</svg>
