<svg width="11" height="19" viewBox="0 0 11 19" fill="none" xmlns="http://www.w3.org/2000/svg">
<path d="M10.3725 0.367514C9.88245 -0.122486 9.09245 -0.122486 8.60245 0.367513L0.292453 8.67751C0.199749 8.77003 0.126202 8.87992 0.0760201 9.00089C0.0258387 9.12186 8.46109e-06 9.25155 8.44964e-06 9.38251C8.43819e-06 9.51348 0.0258387 9.64316 0.0760201 9.76414C0.126201 9.88511 0.199749 9.995 0.292453 10.0875L8.60245 18.3975C9.09245 18.8875 9.88245 18.8875 10.3725 18.3975C10.8625 17.9075 10.8625 17.1175 10.3725 16.6275L3.13245 9.37751L10.3825 2.12751C10.8625 1.64751 10.8625 0.847513 10.3725 0.367514Z" fill="black"/>
</svg>
