<svg width="37" height="37" viewBox="0 0 37 37" fill="none" xmlns="http://www.w3.org/2000/svg">
<path d="M34.7161 14.4973C34.0602 13.8128 33.3824 13.1064 33.11 12.4488C32.8577 11.8383 32.8442 10.9352 32.8291 9.97991C32.8055 8.40236 32.7786 6.61627 31.5812 5.41882C30.3837 4.22136 28.5909 4.19445 27.0201 4.17091C26.0648 4.15577 25.1701 4.14232 24.5512 3.89005C23.8936 3.61759 23.1872 2.93982 22.5027 2.28391C21.386 1.21427 20.1213 0 18.5 0C16.8787 0 15.614 1.21427 14.4973 2.28391C13.8128 2.93982 13.1064 3.61759 12.4488 3.89005C11.8383 4.14232 10.9352 4.15577 9.97991 4.17091C8.40236 4.19445 6.61627 4.22136 5.41882 5.41882C4.22136 6.61627 4.19445 8.40909 4.17091 9.97991C4.15577 10.9352 4.14232 11.8299 3.89005 12.4488C3.61759 13.1064 2.93982 13.8128 2.28391 14.4973C1.21427 15.614 0 16.8787 0 18.5C0 20.1213 1.21427 21.386 2.28391 22.5027C2.93982 23.1872 3.61759 23.8936 3.89005 24.5512C4.14232 25.1617 4.15577 26.0648 4.17091 27.0201C4.19445 28.5976 4.22136 30.3837 5.41882 31.5812C6.61627 32.7786 8.40909 32.8055 9.97991 32.8291C10.9352 32.8442 11.8299 32.8577 12.4488 33.11C13.1064 33.3824 13.8128 34.0602 14.4973 34.7161C15.614 35.7857 16.8787 37 18.5 37C20.1213 37 21.386 35.7857 22.5027 34.7161C23.1872 34.0602 23.8936 33.3824 24.5512 33.11C25.1617 32.8577 26.0648 32.8442 27.0201 32.8291C28.5976 32.8055 30.3837 32.7786 31.5812 31.5812C32.7786 30.3837 32.8055 28.5976 32.8291 27.0201C32.8442 26.0648 32.8577 25.1701 33.11 24.5512C33.3824 23.8936 34.0602 23.1872 34.7161 22.5027C35.7857 21.386 37 20.1213 37 18.5C37 16.8787 35.7857 15.614 34.7161 14.4973ZM33.2596 21.1068C32.4742 21.9242 31.6619 22.7718 31.2415 23.7809C30.8412 24.7463 30.8244 25.8865 30.8075 26.9898C30.789 28.2411 30.7689 29.5361 30.1516 30.155C29.5344 30.7739 28.2377 30.7924 26.9865 30.8109C25.8832 30.8277 24.7429 30.8445 23.7775 31.2448C22.7685 31.6619 21.9275 32.4742 21.1018 33.263C20.2188 34.1039 19.3056 34.9852 18.4966 34.9852C17.6877 34.9852 16.7745 34.109 15.8898 33.263C15.0725 32.4776 14.2248 31.6653 13.2157 31.2448C12.2504 30.8445 11.1101 30.8277 10.0068 30.8109C8.75555 30.7924 7.46055 30.7722 6.84164 30.155C6.22273 29.5378 6.20423 28.2411 6.18573 26.9898C6.16891 25.8865 6.15209 24.7463 5.75182 23.7809C5.33473 22.7718 4.52241 21.9309 3.73364 21.1051C2.89441 20.2222 2.01818 19.309 2.01818 18.5C2.01818 17.691 2.89441 16.7778 3.74036 15.8932C4.52577 15.0758 5.33809 14.2282 5.75855 13.2191C6.15882 12.2537 6.17564 11.1135 6.19245 10.0102C6.21095 8.75891 6.23114 7.46391 6.84836 6.845C7.46559 6.22609 8.76227 6.20759 10.0135 6.18909C11.1168 6.17227 12.2571 6.15546 13.2225 5.75518C14.2315 5.33809 15.0725 4.52577 15.8982 3.737C16.7778 2.89441 17.691 2.01818 18.5 2.01818C19.309 2.01818 20.2222 2.89441 21.1068 3.74036C21.9242 4.52577 22.7718 5.33809 23.7809 5.75855C24.7463 6.15882 25.8865 6.17564 26.9898 6.19245C28.2411 6.21095 29.5361 6.23114 30.155 6.84836C30.7739 7.46559 30.7924 8.76227 30.8109 10.0135C30.8277 11.1168 30.8445 12.2571 31.2448 13.2225C31.6619 14.2315 32.4742 15.0725 33.263 15.8982C34.1039 16.7812 34.9852 17.6944 34.9852 18.5034C34.9852 19.3123 34.1056 20.2222 33.2596 21.1068ZM20.1818 27.2455C20.1818 27.5781 20.0832 27.9033 19.8984 28.1798C19.7136 28.4564 19.4509 28.672 19.1436 28.7993C18.8363 28.9265 18.4981 28.9599 18.1719 28.895C17.8457 28.8301 17.546 28.6699 17.3108 28.4347C17.0756 28.1995 16.9154 27.8998 16.8505 27.5736C16.7856 27.2473 16.8189 26.9092 16.9462 26.6019C17.0735 26.2945 17.2891 26.0319 17.5656 25.8471C17.8422 25.6623 18.1674 25.5636 18.5 25.5636C18.946 25.5636 19.3738 25.7408 19.6892 26.0562C20.0046 26.3716 20.1818 26.7994 20.1818 27.2455ZM24.8909 15.1364C24.8909 17.982 22.5549 20.35 19.5091 20.7839V21.1909C19.5091 21.4585 19.4028 21.7152 19.2135 21.9044C19.0243 22.0937 18.7676 22.2 18.5 22.2C18.2324 22.2 17.9757 22.0937 17.7865 21.9044C17.5972 21.7152 17.4909 21.4585 17.4909 21.1909V19.8455C17.4909 19.5778 17.5972 19.3212 17.7865 19.1319C17.9757 18.9427 18.2324 18.8364 18.5 18.8364C20.9117 18.8364 22.8727 17.1764 22.8727 15.1364C22.8727 13.0963 20.9117 11.4364 18.5 11.4364C16.0883 11.4364 14.1273 13.0963 14.1273 15.1364V15.8091C14.1273 16.0767 14.021 16.3334 13.8317 16.5226C13.6425 16.7119 13.3858 16.8182 13.1182 16.8182C12.8506 16.8182 12.5939 16.7119 12.4046 16.5226C12.2154 16.3334 12.1091 16.0767 12.1091 15.8091V15.1364C12.1091 11.983 14.9682 9.41818 18.5 9.41818C22.0318 9.41818 24.8909 11.983 24.8909 15.1364Z" fill="black"/>
</svg>
